<?xml version="1.0" standalone="no"?>
<!DOCTYPE svg PUBLIC "-//W3C//DTD SVG 20010904//EN"
 "http://www.w3.org/TR/2001/REC-SVG-20010904/DTD/svg10.dtd">
<svg version="1.0" xmlns="http://www.w3.org/2000/svg"
 width="200.000000pt" height="200.000000pt" viewBox="0 0 200.000000 200.000000"
 preserveAspectRatio="xMidYMid meet">

<g transform="translate(0.000000,200.000000) scale(0.100000,-0.100000)"
fill="#e63939" stroke="none">
<path d="M590 1088 l0 -275 69 -7 c134 -13 255 -50 324 -99 13 -9 21 -9 35 0
68 49 189 86 323 99 l69 7 0 275 0 275 -73 -6 c-129 -9 -274 -54 -316 -96
l-21 -21 -21 21 c-42 42 -187 87 -316 96 l-73 6 0 -275z m220 156 c0 -3 -9
-13 -20 -22 -18 -15 -21 -33 -27 -154 -7 -151 -2 -168 48 -168 48 0 77 16 84
49 6 30 21 48 31 38 2 -2 2 -30 -2 -61 l-7 -56 -118 0 c-89 0 -119 3 -119 13
0 7 9 18 20 25 19 11 20 23 20 162 0 143 -1 150 -20 150 -11 0 -20 7 -20 15 0
12 14 15 65 15 36 0 65 -3 65 -6z"/>
<path d="M547 1273 c-4 -3 -7 -123 -7 -265 l0 -258 38 0 c118 0 347 -53 395
-91 l27 -20 27 20 c48 38 277 91 396 91 l37 0 -2 262 c-2 198 -6 262 -15 266
-10 3 -13 -50 -13 -242 l0 -246 -51 0 c-61 0 -231 -33 -285 -56 -21 -9 -51
-25 -66 -36 -28 -19 -28 -19 -55 0 -16 11 -46 27 -67 36 -54 23 -224 56 -285
56 l-51 0 0 245 c0 224 -3 258 -23 238z"/>
</g>
</svg>
